<svg width="72" height="434" viewBox="0 0 72 434" fill="none" xmlns="http://www.w3.org/2000/svg">
<circle cx="36" cy="398" r="36" fill="#661CE7"/>
<path d="M28.528 410.48C26.896 410.48 25.456 410.133 24.208 409.44C22.96 408.736 21.984 407.76 21.28 406.512C20.5867 405.264 20.24 403.824 20.24 402.192V394.768C20.24 393.136 20.5867 391.696 21.28 390.448C21.984 389.2 22.96 388.229 24.208 387.536C25.456 386.832 26.896 386.48 28.528 386.48C30.16 386.48 31.5947 386.832 32.832 387.536C34.08 388.229 35.056 389.2 35.76 390.448C36.464 391.696 36.816 393.136 36.816 394.768V402.192C36.816 403.824 36.464 405.264 35.76 406.512C35.056 407.76 34.08 408.736 32.832 409.44C31.5947 410.133 30.16 410.48 28.528 410.48ZM28.528 406.816C29.3387 406.816 30.0747 406.624 30.736 406.24C31.3973 405.845 31.92 405.323 32.304 404.672C32.688 404.011 32.88 403.275 32.88 402.464V394.48C32.88 393.659 32.688 392.923 32.304 392.272C31.92 391.611 31.3973 391.088 30.736 390.704C30.0747 390.309 29.3387 390.112 28.528 390.112C27.7173 390.112 26.9813 390.309 26.32 390.704C25.6587 391.088 25.136 391.611 24.752 392.272C24.368 392.923 24.176 393.659 24.176 394.48V402.464C24.176 403.275 24.368 404.011 24.752 404.672C25.136 405.323 25.6587 405.845 26.32 406.24C26.9813 406.624 27.7173 406.816 28.528 406.816ZM47.8945 410.432C46.7425 410.432 45.6545 410.208 44.6305 409.76C43.6065 409.312 42.7158 408.677 41.9585 407.856C41.2118 407.035 40.6732 406.064 40.3425 404.944L44.0705 403.936C44.3372 404.853 44.8225 405.563 45.5265 406.064C46.2412 406.555 47.0252 406.795 47.8785 406.784C48.6358 406.784 49.3132 406.608 49.9105 406.256C50.5078 405.904 50.9772 405.429 51.3185 404.832C51.6598 404.224 51.8305 403.547 51.8305 402.8C51.8305 401.659 51.4625 400.704 50.7265 399.936C49.9905 399.168 49.0412 398.784 47.8785 398.784C47.5265 398.784 47.1798 398.832 46.8385 398.928C46.5078 399.024 46.1878 399.157 45.8785 399.328L44.1185 396.288L51.8625 389.664L52.1985 390.592H41.2385V386.96H55.3665V390.608L49.1425 396.592L49.1105 395.456C50.5078 395.552 51.6972 395.941 52.6785 396.624C53.6705 397.307 54.4278 398.187 54.9505 399.264C55.4838 400.341 55.7505 401.52 55.7505 402.8C55.7505 404.251 55.3932 405.552 54.6785 406.704C53.9745 407.856 53.0252 408.768 51.8305 409.44C50.6465 410.101 49.3345 410.432 47.8945 410.432Z" fill="white"/>
<mask id="mask0_823_39" style="mask-type:alpha" maskUnits="userSpaceOnUse" x="0" y="362" width="72" height="72">
<circle cx="36" cy="398" r="36" fill="#661CE7"/>
</mask>
<g mask="url(#mask0_823_39)">
<circle cx="36" cy="434" r="21" fill="white" fill-opacity="0.24"/>
</g>
<line x1="37" y1="265" x2="37" y2="334" stroke="#FF6433" stroke-width="2" stroke-linecap="round" stroke-dasharray="4 4"/>
<circle cx="36" cy="217" r="36" fill="#661CE7"/>
<path d="M28.528 229.48C26.896 229.48 25.456 229.133 24.208 228.44C22.96 227.736 21.984 226.76 21.28 225.512C20.5867 224.264 20.24 222.824 20.24 221.192V213.768C20.24 212.136 20.5867 210.696 21.28 209.448C21.984 208.2 22.96 207.229 24.208 206.536C25.456 205.832 26.896 205.48 28.528 205.48C30.16 205.48 31.5947 205.832 32.832 206.536C34.08 207.229 35.056 208.2 35.76 209.448C36.464 210.696 36.816 212.136 36.816 213.768V221.192C36.816 222.824 36.464 224.264 35.76 225.512C35.056 226.76 34.08 227.736 32.832 228.44C31.5947 229.133 30.16 229.48 28.528 229.48ZM28.528 225.816C29.3387 225.816 30.0747 225.624 30.736 225.24C31.3973 224.845 31.92 224.323 32.304 223.672C32.688 223.011 32.88 222.275 32.88 221.464V213.48C32.88 212.659 32.688 211.923 32.304 211.272C31.92 210.611 31.3973 210.088 30.736 209.704C30.0747 209.309 29.3387 209.112 28.528 209.112C27.7173 209.112 26.9813 209.309 26.32 209.704C25.6587 210.088 25.136 210.611 24.752 211.272C24.368 211.923 24.176 212.659 24.176 213.48V221.464C24.176 222.275 24.368 223.011 24.752 223.672C25.136 224.323 25.6587 224.845 26.32 225.24C26.9813 225.624 27.7173 225.816 28.528 225.816ZM40.6625 228.968V225.608L50.5185 216.824C51.2865 216.141 51.8198 215.496 52.1185 214.888C52.4172 214.28 52.5665 213.693 52.5665 213.128C52.5665 212.36 52.4012 211.677 52.0705 211.08C51.7398 210.472 51.2812 209.992 50.6945 209.64C50.1185 209.288 49.4518 209.112 48.6945 209.112C47.8945 209.112 47.1852 209.299 46.5665 209.672C45.9585 210.035 45.4838 210.52 45.1425 211.128C44.8012 211.736 44.6412 212.392 44.6625 213.096H40.6945C40.6945 211.56 41.0358 210.221 41.7185 209.08C42.4118 207.939 43.3612 207.053 44.5665 206.424C45.7825 205.795 47.1852 205.48 48.7745 205.48C50.2465 205.48 51.5692 205.811 52.7425 206.472C53.9158 207.123 54.8385 208.029 55.5105 209.192C56.1825 210.344 56.5185 211.672 56.5185 213.176C56.5185 214.275 56.3692 215.197 56.0705 215.944C55.7718 216.691 55.3238 217.379 54.7265 218.008C54.1398 218.637 53.4092 219.336 52.5345 220.104L45.5425 226.296L45.1905 225.336H56.5185V228.968H40.6625Z" fill="white"/>
<mask id="mask1_823_39" style="mask-type:alpha" maskUnits="userSpaceOnUse" x="0" y="181" width="72" height="72">
<circle cx="36" cy="217" r="36" fill="#661CE7"/>
</mask>
<g mask="url(#mask1_823_39)">
<circle cx="36" cy="253" r="21" fill="white" fill-opacity="0.24"/>
</g>
<g filter="url(#filter0_d_823_39)">
<line x1="37" y1="89" x2="37" y2="158" stroke="#FF6433" stroke-width="2" stroke-linecap="round" stroke-dasharray="4 4"/>
</g>
<circle cx="36" cy="36" r="36" fill="#661CE7"/>
<path d="M28.528 48.48C26.896 48.48 25.456 48.1333 24.208 47.44C22.96 46.736 21.984 45.76 21.28 44.512C20.5867 43.264 20.24 41.824 20.24 40.192V32.768C20.24 31.136 20.5867 29.696 21.28 28.448C21.984 27.2 22.96 26.2293 24.208 25.536C25.456 24.832 26.896 24.48 28.528 24.48C30.16 24.48 31.5947 24.832 32.832 25.536C34.08 26.2293 35.056 27.2 35.76 28.448C36.464 29.696 36.816 31.136 36.816 32.768V40.192C36.816 41.824 36.464 43.264 35.76 44.512C35.056 45.76 34.08 46.736 32.832 47.44C31.5947 48.1333 30.16 48.48 28.528 48.48ZM28.528 44.816C29.3387 44.816 30.0747 44.624 30.736 44.24C31.3973 43.8453 31.92 43.3227 32.304 42.672C32.688 42.0107 32.88 41.2747 32.88 40.464V32.48C32.88 31.6587 32.688 30.9227 32.304 30.272C31.92 29.6107 31.3973 29.088 30.736 28.704C30.0747 28.3093 29.3387 28.112 28.528 28.112C27.7173 28.112 26.9813 28.3093 26.32 28.704C25.6587 29.088 25.136 29.6107 24.752 30.272C24.368 30.9227 24.176 31.6587 24.176 32.48V40.464C24.176 41.2747 24.368 42.0107 24.752 42.672C25.136 43.3227 25.6587 43.8453 26.32 44.24C26.9813 44.624 27.7173 44.816 28.528 44.816ZM45.3025 48V29.168L40.9825 31.808V27.552L45.3025 24.96H49.2385V48H45.3025Z" fill="white"/>
<mask id="mask2_823_39" style="mask-type:alpha" maskUnits="userSpaceOnUse" x="0" y="0" width="72" height="72">
<circle cx="36" cy="36" r="36" fill="#661CE7"/>
</mask>
<g mask="url(#mask2_823_39)">
<g filter="url(#filter1_d_823_39)">
<circle cx="36" cy="72" r="21" fill="white" fill-opacity="0.24" shape-rendering="crispEdges"/>
</g>
</g>
<defs>
<filter id="filter0_d_823_39" x="32" y="88" width="10" height="79" filterUnits="userSpaceOnUse" color-interpolation-filters="sRGB">
<feFlood flood-opacity="0" result="BackgroundImageFix"/>
<feColorMatrix in="SourceAlpha" type="matrix" values="0 0 0 0 0 0 0 0 0 0 0 0 0 0 0 0 0 0 127 0" result="hardAlpha"/>
<feOffset dy="4"/>
<feGaussianBlur stdDeviation="2"/>
<feComposite in2="hardAlpha" operator="out"/>
<feColorMatrix type="matrix" values="0 0 0 0 0 0 0 0 0 0 0 0 0 0 0 0 0 0 0.25 0"/>
<feBlend mode="normal" in2="BackgroundImageFix" result="effect1_dropShadow_823_39"/>
<feBlend mode="normal" in="SourceGraphic" in2="effect1_dropShadow_823_39" result="shape"/>
</filter>
<filter id="filter1_d_823_39" x="11" y="51" width="50" height="50" filterUnits="userSpaceOnUse" color-interpolation-filters="sRGB">
<feFlood flood-opacity="0" result="BackgroundImageFix"/>
<feColorMatrix in="SourceAlpha" type="matrix" values="0 0 0 0 0 0 0 0 0 0 0 0 0 0 0 0 0 0 127 0" result="hardAlpha"/>
<feOffset dy="4"/>
<feGaussianBlur stdDeviation="2"/>
<feComposite in2="hardAlpha" operator="out"/>
<feColorMatrix type="matrix" values="0 0 0 0 0 0 0 0 0 0 0 0 0 0 0 0 0 0 0.25 0"/>
<feBlend mode="normal" in2="BackgroundImageFix" result="effect1_dropShadow_823_39"/>
<feBlend mode="normal" in="SourceGraphic" in2="effect1_dropShadow_823_39" result="shape"/>
</filter>
</defs>
</svg>
