<svg width="48" height="48" viewBox="0 0 48 48" fill="none" xmlns="http://www.w3.org/2000/svg">
<circle cx="24" cy="24" r="24" transform="rotate(-180 24 24)" fill="white"/>
<path d="M34.9923 24.7071C35.3828 24.3166 35.3828 23.6834 34.9923 23.2929L28.6283 16.9289C28.2378 16.5384 27.6046 16.5384 27.2141 16.9289C26.8236 17.3195 26.8236 17.9526 27.2141 18.3431L32.8709 24L27.2141 29.6569C26.8236 30.0474 26.8236 30.6805 27.2141 31.0711C27.6046 31.4616 28.2378 31.4616 28.6283 31.0711L34.9923 24.7071ZM14.1561 23C13.6038 23 13.1561 23.4477 13.1561 24C13.1561 24.5523 13.6038 25 14.1561 25L14.1561 23ZM34.2852 23L14.1561 23L14.1561 25L34.2852 25L34.2852 23Z" fill="#1E1B1B"/>
</svg>
