<svg width="152" height="37" viewBox="0 0 152 37" fill="none" xmlns="http://www.w3.org/2000/svg">
<path d="M44.25 2.03101H48.0569V17.3964H44.25V2.03101ZM49.567 11.5948C49.567 7.79463 51.9019 5.52718 55.5058 5.52718C59.1097 5.52718 61.4446 7.79463 61.4446 11.5948C61.4446 15.395 59.1605 17.6751 55.5058 17.6751C51.8512 17.6751 49.567 15.4583 49.567 11.5948ZM57.625 11.5948C57.625 9.50471 56.8002 8.27598 55.5058 8.27598C54.2115 8.27598 53.3993 9.54271 53.3993 11.5948C53.3993 13.6469 54.1988 14.8883 55.5058 14.8883C56.8129 14.8883 57.625 13.7229 57.625 11.6075V11.5948ZM62.8786 18.1438H66.5332C66.7071 18.5295 67.0012 18.8489 67.3716 19.0543C67.742 19.2597 68.169 19.3402 68.589 19.2839C70.0356 19.2839 70.797 18.4985 70.797 17.3584V15.2303H70.7208C70.4175 15.8826 69.9253 16.4291 69.3078 16.7994C68.6903 17.1697 67.9758 17.3468 67.2565 17.3078C64.4775 17.3078 62.6375 15.1923 62.6375 11.5568C62.6375 7.9213 64.3886 5.62852 67.3073 5.62852C68.0491 5.59949 68.7821 5.79747 69.4081 6.19593C70.0341 6.59439 70.5231 7.1743 70.8097 7.85796V7.85796V5.74253H74.6166V17.2698C74.6166 20.0439 72.1675 21.7667 68.5509 21.7667C65.1881 21.7667 63.0943 20.2592 62.8786 18.1565V18.1438ZM70.8097 11.5821C70.8097 9.73272 69.9594 8.56733 68.6143 8.56733C67.2692 8.56733 66.4444 9.72006 66.4444 11.5821C66.4444 13.4442 67.2565 14.4956 68.6143 14.4956C69.9721 14.4956 70.8097 13.4696 70.8097 11.5948V11.5821ZM76.0505 11.5821C76.0505 7.78196 78.3854 5.51451 81.9893 5.51451C85.5932 5.51451 87.9408 7.78196 87.9408 11.5821C87.9408 15.3823 85.6567 17.6624 81.9893 17.6624C78.322 17.6624 76.0505 15.4583 76.0505 11.5948V11.5821ZM84.1085 11.5821C84.1085 9.49205 83.2837 8.26332 81.9893 8.26332C80.695 8.26332 79.9463 9.54271 79.9463 11.6075C79.9463 13.6723 80.7457 14.901 82.0401 14.901C83.3345 14.901 84.1085 13.7229 84.1085 11.6075V11.5821ZM89.3875 2.98106C89.3775 2.59737 89.4819 2.21937 89.6874 1.89497C89.8928 1.57057 90.1902 1.31437 90.5417 1.15887C90.8933 1.00337 91.2831 0.955554 91.6619 1.02149C92.0407 1.08743 92.3913 1.26415 92.6694 1.52925C92.9474 1.79435 93.1403 2.13589 93.2237 2.51057C93.3071 2.88526 93.2771 3.27621 93.1376 3.63388C92.9981 3.99155 92.7554 4.29982 92.4402 4.51961C92.125 4.7394 91.7515 4.86083 91.3671 4.86848C91.1122 4.88596 90.8565 4.85064 90.616 4.76476C90.3755 4.67887 90.1554 4.54426 89.9695 4.3694C89.7836 4.19453 89.6359 3.98318 89.5358 3.74862C89.4356 3.51406 89.3851 3.26136 89.3875 3.00639V2.98106ZM89.3875 5.76786H93.1944V17.3964H89.3875V5.76786ZM107.014 11.5821C107.014 15.3823 105.326 17.5484 102.433 17.5484C101.691 17.596 100.952 17.4149 100.317 17.0298C99.6811 16.6447 99.1794 16.074 98.8794 15.395H98.8033V21.1206H94.9963V5.74253H98.8033V7.81996H98.8794C99.1655 7.12974 99.6576 6.54423 100.289 6.14306C100.92 5.74189 101.66 5.54454 102.407 5.57785C105.326 5.62852 107.064 7.8073 107.064 11.6075L107.014 11.5821ZM103.207 11.5821C103.207 9.73272 102.356 8.55467 101.024 8.55467C99.6916 8.55467 98.8413 9.74539 98.8286 11.5821C98.816 13.4189 99.6916 14.597 101.024 14.597C102.356 14.597 103.207 13.4442 103.207 11.6075V11.5821ZM113.549 5.50185C116.709 5.50185 118.625 6.99659 118.714 9.39071H115.249C115.249 8.56733 114.564 8.04797 113.511 8.04797C112.457 8.04797 111.988 8.45333 111.988 9.04869C111.988 9.64405 112.407 9.83406 113.257 10.0114L115.693 10.5054C118.016 10.9995 119.005 11.9368 119.005 13.6976C119.005 16.1044 116.81 17.6498 113.574 17.6498C110.338 17.6498 108.219 16.1044 108.054 13.7356H111.721C111.836 14.597 112.521 15.1037 113.638 15.1037C114.754 15.1037 115.262 14.7363 115.262 14.1283C115.262 13.5202 114.907 13.3936 113.993 13.2036L111.798 12.7349C109.526 12.2662 108.333 11.0628 108.333 9.28937C108.359 7.00925 110.402 5.52718 113.549 5.52718V5.50185ZM131.708 17.3711H128.04V15.205H127.964C127.763 15.9323 127.318 16.5688 126.704 17.0089C126.09 17.449 125.344 17.6662 124.589 17.6244C124.01 17.6573 123.432 17.5658 122.892 17.3562C122.352 17.1466 121.863 16.8237 121.459 16.4094C121.055 15.9951 120.745 15.4991 120.549 14.9547C120.353 14.4104 120.277 13.8305 120.325 13.2542V5.74253H124.132V12.3802C124.132 13.7609 124.843 14.4956 126.023 14.4956C126.3 14.4962 126.573 14.4377 126.825 14.3241C127.078 14.2104 127.303 14.0443 127.485 13.8368C127.668 13.6292 127.804 13.3851 127.884 13.1208C127.965 12.8565 127.988 12.5781 127.952 12.3042V5.74253H131.759L131.708 17.3711ZM133.548 5.74253H137.228V7.98464H137.304C137.506 7.26701 137.941 6.63651 138.54 6.19183C139.139 5.74715 139.869 5.51341 140.616 5.52718C141.376 5.46646 142.13 5.69339 142.73 6.16282C143.329 6.63225 143.73 7.30978 143.852 8.06064H143.928C144.158 7.3018 144.635 6.64098 145.283 6.1823C145.931 5.72362 146.713 5.49315 147.507 5.52718C148.024 5.50982 148.54 5.60138 149.02 5.79592C149.5 5.99046 149.933 6.28362 150.292 6.65636C150.651 7.0291 150.928 7.47307 151.104 7.95943C151.28 8.44579 151.351 8.96366 151.313 9.47938V17.3964H147.507V10.4928C147.507 9.22603 146.936 8.64334 145.87 8.64334C145.632 8.64133 145.397 8.69023 145.179 8.78675C144.962 8.88327 144.768 9.02516 144.611 9.20285C144.453 9.38053 144.336 9.58988 144.266 9.81677C144.196 10.0437 144.176 10.2828 144.207 10.5181V17.3964H140.591V10.4421C140.591 9.2767 140.02 8.64334 138.979 8.64334C138.739 8.64341 138.501 8.69436 138.282 8.79284C138.063 8.89132 137.867 9.03507 137.707 9.21463C137.548 9.39418 137.428 9.60546 137.357 9.83451C137.285 10.0636 137.263 10.3052 137.291 10.5434V17.3964H133.484L133.548 5.74253Z" fill="#1E1B1B"/>
<path d="M33.6035 12.7278C32.9578 11.2538 32.103 9.88012 31.0656 8.64895C29.532 6.77461 27.6181 5.24574 25.45 4.16296C23.2818 3.08017 20.9085 2.46803 18.4862 2.36681C16.064 2.26558 13.6477 2.67758 11.3965 3.57568C9.14526 4.47379 7.11009 5.83763 5.42491 7.57746C3.73974 9.31728 2.44279 11.3936 1.61941 13.6699C0.796034 15.9461 0.464903 18.3706 0.647815 20.7837C0.830727 23.1969 1.52353 25.5441 2.68064 27.6707C3.83774 29.7973 5.4329 31.6552 7.36113 33.1222C8.59839 34.0822 9.96552 34.8626 11.4219 35.4403C13.4637 36.2755 15.6489 36.7058 17.8556 36.707C22.4104 36.6969 26.7755 34.8845 29.9939 31.6671C33.2123 28.4496 35.0215 24.0896 35.0248 19.5428C35.0281 17.1975 34.5442 14.877 33.6035 12.7278V12.7278ZM17.8429 5.84947C19.8244 5.84926 21.7821 6.2816 23.5786 7.1162V7.1162C23.1405 7.30515 22.6799 7.43713 22.2081 7.50889C20.6557 7.73322 19.2175 8.4527 18.1083 9.55994C16.9991 10.6672 16.2783 12.1028 16.0536 13.6525C15.955 14.5217 15.559 15.3302 14.9325 15.9417C14.306 16.5533 13.4874 16.9304 12.6147 17.0094C11.0622 17.2337 9.62405 17.9532 8.51485 19.0604C7.40564 20.1676 6.68489 21.6033 6.46016 23.153C6.38407 23.9794 6.03085 24.756 5.45767 25.3571V25.3571C4.4687 23.2711 4.02443 20.9693 4.1662 18.6659C4.30797 16.3624 5.03117 14.1322 6.2685 12.1828C7.50584 10.2334 9.21709 8.62807 11.243 7.5163C13.2689 6.40452 15.5437 5.82241 17.8556 5.82414L17.8429 5.84947ZM7.34844 28.4099C7.50072 28.2706 7.653 28.1439 7.80528 27.9919C8.93422 26.8993 9.65889 25.457 9.86101 23.9004C9.94297 23.0254 10.3343 22.2081 10.965 21.5949C11.5719 20.9643 12.3888 20.5769 13.2619 20.5055C14.8143 20.2812 16.2525 19.5617 17.3617 18.4545C18.4709 17.3472 19.1917 15.9116 19.4164 14.3619C19.4713 13.4467 19.8647 12.5845 20.5204 11.9424C21.1423 11.3241 21.9669 10.9507 22.8426 10.8911C24.2689 10.6952 25.599 10.0623 26.6496 9.07963C27.8458 10.0703 28.8593 11.2621 29.6443 12.6011C29.5961 12.6662 29.5408 12.7257 29.4794 12.7785C28.8737 13.4146 28.0578 13.8106 27.1825 13.8932C25.6285 14.1136 24.1881 14.8318 23.0782 15.9398C21.9683 17.0477 21.2488 18.4855 21.028 20.0368C20.9386 20.9089 20.5499 21.7233 19.9278 22.342C19.3056 22.9607 18.4884 23.3456 17.6145 23.4317C16.0575 23.6543 14.6139 24.3723 13.4983 25.4791C12.3827 26.5859 11.6545 28.0225 11.4219 29.5753C11.3536 30.1944 11.1406 30.7888 10.8001 31.3107C9.49808 30.5391 8.33201 29.5591 7.34844 28.4099V28.4099ZM17.8429 33.2995C16.5552 33.3009 15.2737 33.1218 14.0359 32.7675C14.4594 31.9796 14.7346 31.1209 14.8481 30.234C14.937 29.3639 15.3239 28.551 15.9435 27.9326C16.563 27.3141 17.3773 26.9279 18.2489 26.8392C19.8037 26.6174 21.2447 25.899 22.3564 24.7915C23.4682 23.6841 24.1908 22.2471 24.4162 20.6955C24.5051 19.8254 24.892 19.0126 25.5115 18.3941C26.1311 17.7757 26.9454 17.3895 27.817 17.3007C28.987 17.1488 30.1022 16.7139 31.0656 16.034C31.6005 18.0581 31.6639 20.1776 31.2508 22.23C30.8378 24.2823 29.9592 26.213 28.6826 27.8738C27.406 29.5346 25.7653 30.8814 23.8863 31.811C22.0073 32.7405 19.9399 33.228 17.8429 33.2362V33.2995Z" fill="#1E1B1B"/>
</svg>
