<svg width="162" height="39" viewBox="0 0 162 39" fill="none" xmlns="http://www.w3.org/2000/svg">
<path d="M46.4561 2.27167H50.5295V18.7392H46.4561V2.27167ZM52.1538 12.5448C52.1538 8.46598 54.6917 6.0212 58.4986 6.0212C62.3056 6.0212 64.8435 8.46598 64.8435 12.5448C64.8435 16.6237 62.3944 19.0938 58.4986 19.0938C54.6029 19.0938 52.1538 16.7124 52.1538 12.5448ZM60.8082 12.5448C60.8082 10.3027 59.9326 8.98534 58.5367 8.98534C57.1408 8.98534 56.2779 10.2521 56.2779 12.5448C56.2779 14.8376 57.1408 16.0917 58.5367 16.0917C59.9326 16.0917 60.8335 14.8376 60.8335 12.5575L60.8082 12.5448ZM66.4678 19.5879H70.4016C70.5807 20.0106 70.8935 20.3633 71.2922 20.592C71.6908 20.8207 72.1536 20.913 72.6097 20.8546C74.1705 20.8546 74.9826 20.0186 74.9826 18.7772V16.497H74.9953C74.6592 17.207 74.1156 17.7988 73.4361 18.1945C72.7566 18.5902 71.973 18.7712 71.1884 18.7138C68.2063 18.7138 66.2267 16.4464 66.2267 12.5448C66.2267 8.64332 68.1175 6.2112 71.3026 6.2112C72.1073 6.16823 72.9055 6.3754 73.5873 6.80418C74.2691 7.23296 74.8009 7.86223 75.1095 8.60532H74.9953V6.31254H79.0307V18.6505C79.0307 21.6273 76.3912 23.4894 72.5081 23.4894C68.9804 23.4767 66.7216 21.868 66.4932 19.6005L66.4678 19.5879ZM74.9953 12.5448C74.9953 10.5561 74.0817 9.30203 72.635 9.30203C71.1884 9.30203 70.3001 10.5688 70.3001 12.5448C70.3001 14.5209 71.1757 15.6863 72.635 15.6863C74.0944 15.6863 74.9953 14.6096 74.9953 12.5448ZM80.6423 12.5448C80.6423 8.46598 83.1802 6.0212 86.9871 6.0212C90.7941 6.0212 93.332 8.46598 93.332 12.5448C93.332 16.6237 90.8702 19.0938 86.9871 19.0938C83.1041 19.0938 80.6676 16.7124 80.6676 12.5448H80.6423ZM89.2967 12.5448C89.2967 10.3027 88.4084 8.98534 87.0252 8.98534C85.642 8.98534 84.7664 10.2521 84.7664 12.5448C84.7664 14.8376 85.6293 16.0917 87.0252 16.0917C88.4211 16.0917 89.3221 14.8376 89.3221 12.5575L89.2967 12.5448ZM94.9817 3.3104C94.964 2.8962 95.0708 2.48618 95.2884 2.13309C95.5061 1.77999 95.8246 1.49997 96.2029 1.32905C96.5813 1.15814 97.0022 1.10414 97.4116 1.174C97.821 1.24386 98.2001 1.43439 98.5001 1.72108C98.8001 2.00777 99.0073 2.3775 99.095 2.78271C99.1828 3.18792 99.1471 3.61008 98.9925 3.99488C98.838 4.37967 98.5716 4.7095 98.2277 4.94194C97.8838 5.17437 97.4781 5.29878 97.0628 5.29916C96.7974 5.30589 96.5333 5.25993 96.2858 5.16395C96.0383 5.06797 95.8124 4.92388 95.6212 4.74004C95.4299 4.55621 95.2771 4.33629 95.1717 4.09304C95.0663 3.8498 95.0103 3.58807 95.0071 3.32306L94.9817 3.3104ZM94.9817 6.29987H99.1059V18.7898H95.0451L94.9817 6.29987ZM113.94 12.5448C113.94 16.6111 112.113 18.9672 109.004 18.9672C108.208 19.0162 107.416 18.8202 106.735 18.4056C106.054 17.9911 105.518 17.3779 105.197 16.6491H105.121V22.8054H101.047V6.33788H105.095V8.56732H105.172C105.481 7.82408 106.013 7.19421 106.694 6.76352C107.375 6.33283 108.173 6.12228 108.978 6.16054C112.176 6.1352 114.016 8.47865 114.016 12.5575L113.94 12.5448ZM109.791 12.5448C109.791 10.5688 108.864 9.28936 107.43 9.28936C105.996 9.28936 105.095 10.5561 105.083 12.5448C105.07 14.5336 105.996 15.7877 107.43 15.7877C108.864 15.7877 109.867 14.6096 109.867 12.5575L109.791 12.5448ZM120.894 6.00853C124.308 6.00853 126.427 7.61727 126.452 10.2014H122.734C122.734 9.30203 121.986 8.74466 120.869 8.74466C119.752 8.74466 119.219 9.17535 119.219 9.82139C119.219 10.4674 119.689 10.6701 120.628 10.8601L123.242 11.3921C125.78 11.9242 126.795 12.9375 126.795 14.825C126.795 17.3584 124.447 19.0812 120.958 19.0812C117.468 19.0812 115.196 17.4091 115.032 14.863H118.978C119.092 15.7877 119.828 16.3324 121.021 16.3324C122.214 16.3324 122.772 15.9524 122.772 15.281C122.772 14.6096 122.392 14.4956 121.414 14.2929L119.054 13.7989C116.605 13.2796 115.323 12.0002 115.323 10.0874C115.4 7.60461 117.531 6.0212 120.97 6.0212L120.894 6.00853ZM140.436 18.7772H136.49V16.4337H136.414C136.193 17.2154 135.712 17.8985 135.05 18.3706C134.388 18.8427 133.584 19.0754 132.772 19.0305C132.158 19.0504 131.548 18.9407 130.98 18.7084C130.412 18.4762 129.9 18.1267 129.477 17.6829C129.054 17.2391 128.73 16.7111 128.526 16.1334C128.321 15.5557 128.242 14.9414 128.292 14.3309V6.31254H132.366V13.4569C132.366 14.9263 133.14 15.7243 134.409 15.7243C134.707 15.7221 135 15.6561 135.27 15.5309C135.54 15.4056 135.78 15.224 135.974 14.9982C136.167 14.7725 136.31 14.5079 136.393 14.2224C136.475 13.9368 136.495 13.6369 136.452 13.3429V6.31254H140.513L140.436 18.7772ZM142.403 6.29987H146.363V8.70666H146.451C146.67 7.93566 147.139 7.25881 147.784 6.78206C148.429 6.3053 149.215 6.05554 150.017 6.07186C150.823 6.00194 151.626 6.23452 152.269 6.72414C152.912 7.21375 153.349 7.92518 153.494 8.71933H153.672C153.925 7.92094 154.436 7.22855 155.125 6.74978C155.813 6.27102 156.641 6.03269 157.479 6.07186C158.036 6.0507 158.591 6.1472 159.108 6.35505C159.625 6.5629 160.093 6.87741 160.479 7.278C160.866 7.67859 161.164 8.15622 161.353 8.67965C161.543 9.20307 161.619 9.76049 161.578 10.3154V18.7898H157.479V11.3541C157.479 10.0874 156.882 9.37803 155.728 9.37803C155.471 9.37383 155.217 9.42497 154.983 9.52794C154.749 9.6309 154.539 9.78326 154.369 9.97457C154.199 10.1659 154.073 10.3916 153.998 10.6363C153.924 10.881 153.904 11.1388 153.938 11.3921V18.7898H150.055V11.3161C150.055 10.0494 149.433 9.37803 148.317 9.37803C148.058 9.37597 147.802 9.4292 147.565 9.53415C147.329 9.63909 147.117 9.79331 146.946 9.98647C146.774 10.1796 146.645 10.4073 146.569 10.6541C146.492 10.9009 146.47 11.1612 146.502 11.4175V18.7898H142.429L142.403 6.29987Z" fill="#1E1B1B"/>
<path d="M38.3981 13.3487C38.3982 10.8275 37.6355 8.36504 36.2099 6.28388C34.7843 4.20271 32.7623 2.59986 30.4087 1.68528C28.0551 0.770693 25.4796 0.587014 23.0197 1.1583C20.5597 1.72958 18.33 3.0292 16.6225 4.88691H0.785645V38.2526H34.2231V22.6591C35.5356 21.4873 36.5857 20.0525 37.3051 18.4482C38.0245 16.844 38.3969 15.1063 38.3981 13.3487V13.3487ZM31.9644 13.3487C31.9669 14.5568 31.6103 15.7385 30.9397 16.7442C30.2692 17.7499 29.3148 18.5345 28.1974 18.9986C27.08 19.4626 25.8498 19.5853 24.6624 19.3512C23.4751 19.117 22.3841 18.5365 21.5274 17.6831C20.6708 16.8298 20.087 15.7419 19.8499 14.5571C19.6129 13.3724 19.7333 12.1441 20.1958 11.0277C20.6584 9.91134 21.4423 8.95702 22.4485 8.28556C23.4546 7.6141 24.6376 7.25569 25.8479 7.25569C27.4679 7.25569 29.0217 7.89722 30.1684 9.03951C31.3151 10.1818 31.961 11.7315 31.9644 13.3487V13.3487ZM27.7894 31.8302H7.21935V11.3092H13.4881C13.367 11.9824 13.3033 12.6647 13.2977 13.3487C13.3011 16.6703 14.6244 19.8548 16.9773 22.2036C19.3302 24.5523 22.5204 25.8733 25.8479 25.8766C26.4984 25.8732 27.1477 25.8181 27.7894 25.7119V31.8302Z" fill="#1E1B1B"/>
</svg>
