<svg width="45" height="49" viewBox="0 0 45 49" fill="none" xmlns="http://www.w3.org/2000/svg">
<path d="M0.906623 27.0014C1.12047 26.7338 1.43955 26.5776 1.77432 26.5776H6.02992C7.08011 23.7365 8.44826 20.9528 10.0034 19.902C15.3831 16.2719 29.6524 16.2719 35.0321 19.902C36.5883 20.9539 37.9509 23.7411 39.0067 26.5776H43.2623C43.6004 26.5776 43.9184 26.7338 44.13 27.0014C44.3427 27.2678 44.4278 27.6204 44.3584 27.9592L43.728 31.092C43.6206 31.626 43.1615 32.0073 42.632 32.0073H41.3713C42.5883 33.4474 43.1783 35.2607 43.1862 37.0751C43.194 39.3168 42.3644 41.3426 40.8473 42.7758C40.8305 42.7907 40.8137 42.801 40.798 42.816V47.1994C40.798 48.1491 40.0457 48.922 39.1186 48.922H35.1933C34.2663 48.922 33.5139 48.1491 33.5139 47.1994V45.4378H11.5238V47.1994C11.5238 48.1491 10.7714 48.922 9.84441 48.922H5.91908C4.99429 48.922 4.23968 48.1491 4.23968 47.1994V42.9021C2.62969 41.3897 1.86053 39.3088 1.85045 37.2313C1.84373 35.3548 2.46063 33.4749 3.74929 32.005H2.40465C1.87284 32.005 1.4138 31.6237 1.30856 31.0885L0.677106 27.9569C0.612169 27.6204 0.693898 27.2701 0.906623 27.0014ZM33.1881 22.7787C28.9 19.8836 16.1377 19.8836 11.8519 22.7787C11.0189 23.3392 9.94741 25.6049 8.96552 28.3795H36.0722C35.0926 25.6061 34.0211 23.3415 33.1881 22.7787ZM38.2106 37.5069C38.2106 35.635 36.7305 34.1192 34.9067 34.1192C33.0806 34.1192 31.6028 35.635 31.6028 37.5069C31.6028 39.3788 33.0806 40.8959 34.9067 40.8959C36.7305 40.8959 38.2106 39.3788 38.2106 37.5069ZM10.0874 40.8959C11.9112 40.8959 13.3913 39.3788 13.3913 37.5069C13.3913 35.635 11.9112 34.1192 10.0874 34.1192C8.26129 34.1192 6.78341 35.635 6.78341 37.5069C6.78341 39.3788 8.26353 40.8959 10.0874 40.8959Z" fill="white"/>
<mask id="mask0_482_1528" style="mask-type:alpha" maskUnits="userSpaceOnUse" x="7" y="0" width="24" height="28">
<path d="M27.0452 14.5022C26.9962 15.0591 26.6907 15.583 26.1793 15.8768C25.7548 16.1207 25.3173 16.3 24.8704 16.4214C25.1222 17.2931 25.5849 18.5546 26.4084 19.9057C27.1907 21.1897 27.2 22.7392 26.433 24.1574C25.3032 26.2475 22.8084 27.652 20.2241 27.652C18.4492 27.652 16.8713 26.8136 15.7814 25.291C14.2235 23.1143 13.8783 19.9018 14.8585 16.6995C15.7671 13.7309 14.5519 12.1472 13.7479 11.4665C13.0925 12.1144 12.2035 12.5139 11.2209 12.5139C9.20756 12.5139 7.5743 10.8392 7.5743 8.77301C7.5743 6.70688 9.20756 5.03256 11.2209 5.03256C13.2352 5.03256 14.8675 6.70735 14.8675 8.77301C14.8675 9.06392 14.8322 9.34546 14.7711 9.61727C16.2894 10.7564 18.042 13.3205 16.8155 17.3293C16.042 19.8572 16.2793 22.4305 17.4357 24.0457C17.926 24.7313 18.8083 25.5482 20.2246 25.5482C22.0571 25.5482 23.8727 24.5565 24.6394 23.1373C24.9223 22.6139 25.1565 21.821 24.6688 21.0203C23.5795 19.2318 23.0343 17.5629 22.7758 16.5428C22.1704 16.4493 21.5793 16.249 21.0107 15.9376C20.5038 15.6599 20.1928 15.1574 20.1243 14.6144C17.715 12.3803 16.6026 8.35491 16.5386 8.11933C16.4087 7.63606 16.6307 7.13993 17.0446 6.91371C16.7119 3.89172 17.8023 2.36863 18.4603 1.74823C18.4101 1.45789 18.5233 1.14731 18.772 0.980861L19.9811 0.17037C20.2968 -0.0411899 20.6939 0.0655831 20.8669 0.410302L21.443 1.55227C21.6165 1.89708 21.4636 2.26478 21.1011 2.37449L19.7342 2.78777C19.3876 2.89256 18.9725 2.72271 18.7763 2.41118C18.2315 2.99981 17.4471 4.3103 17.7173 6.81025C18.0888 6.88278 18.4072 7.16036 18.515 7.55945C18.8435 8.76857 19.792 11.2661 21.2004 12.7636C21.6487 12.5859 22.1641 12.5947 22.6212 12.8444C22.919 13.0075 23.2101 13.0897 23.509 13.0961H23.5706C23.8854 13.0892 24.1929 12.9982 24.5078 12.8175C24.9537 12.5609 25.4615 12.5383 25.9093 12.7004C27.2862 11.1967 28.2146 8.75211 28.5376 7.55964C28.6457 7.16158 28.9654 6.88335 29.3356 6.81091C29.6063 4.31097 28.8221 3.00047 28.2766 2.41184C28.0802 2.72327 27.6655 2.89322 27.3189 2.78834L25.952 2.37506C25.5901 2.26535 25.4362 1.89708 25.6101 1.55284L26.1858 0.410775C26.3593 0.0659614 26.7563 -0.040717 27.0716 0.170843L28.2819 0.981901C28.5304 1.14835 28.6433 1.45883 28.5934 1.74927C29.2504 2.36976 30.3418 3.8922 30.0088 6.91465C30.423 7.14097 30.6443 7.637 30.5149 8.12084C30.452 8.3515 29.3731 12.2486 27.0452 14.5022ZM11.2209 7.31186C10.4351 7.31186 9.79682 7.96564 9.79682 8.7732C9.79682 9.58019 10.4351 10.2345 11.2209 10.2345C12.0077 10.2345 12.6456 9.58019 12.6456 8.7732C12.6456 7.96555 12.0082 7.31186 11.2209 7.31186Z" fill="black"/>
</mask>
<g mask="url(#mask0_482_1528)">
<path d="M51.8503 -2.5863H19.0265L15.6612 6.25627L19.0265 19.5438H51.8503V-2.5863Z" fill="white"/>
</g>
</svg>
