<svg width="43" height="43" viewBox="0 0 43 43" fill="none" xmlns="http://www.w3.org/2000/svg">
<path d="M33.4081 7.27319C32.0424 7.27319 30.8709 6.4261 30.386 5.22826H27.5386V2.77434H30.386C30.8709 1.5765 32.0424 0.729408 33.4081 0.729408C35.2062 0.729408 36.669 2.19718 36.669 4.0013C36.669 5.80542 35.2062 7.27319 33.4081 7.27319Z" fill="white"/>
<path d="M39.1147 14.2259C38.5787 14.2259 38.073 14.0947 37.6264 13.8638L34.5986 16.3955C34.3788 16.5792 34.1018 16.6798 33.8157 16.6798H27.5386V14.2259H33.373L36.0278 12.0061C35.9156 11.6757 35.8538 11.3221 35.8538 10.954C35.8538 9.14988 37.3166 7.6821 39.1147 7.6821C40.9127 7.6821 42.3755 9.14988 42.3755 10.954C42.3755 12.7581 40.9127 14.2259 39.1147 14.2259Z" fill="white"/>
<path d="M39.1147 24.4506C37.7489 24.4506 36.5774 23.6035 36.0926 22.4056H27.5386V19.9517H36.0926C36.5774 18.7539 37.7489 17.9068 39.1147 17.9068C40.9127 17.9068 42.3755 19.3745 42.3755 21.1787C42.3755 22.9828 40.9127 24.4506 39.1147 24.4506Z" fill="white"/>
<path d="M34.5986 25.962L37.6264 28.4937C38.073 28.2627 38.5787 28.1315 39.1147 28.1315C40.9127 28.1315 42.3755 29.5993 42.3755 31.4034C42.3755 33.2075 40.9127 34.6753 39.1147 34.6753C37.3166 34.6753 35.8538 33.2075 35.8538 31.4034C35.8538 31.0353 35.9156 30.6817 36.0278 30.3513L33.373 28.1315H27.5386V25.6776H33.8157C34.1018 25.6776 34.3788 25.7782 34.5986 25.962Z" fill="white"/>
<path d="M33.4081 35.0843C35.2062 35.0843 36.669 36.552 36.669 38.3562C36.669 40.1603 35.2062 41.6281 33.4081 41.6281C32.0424 41.6281 30.8709 40.781 30.386 39.5831H27.5386V37.1292H30.386C30.8709 35.9314 32.0424 35.0843 33.4081 35.0843Z" fill="white"/>
<path d="M12.865 21.1787C12.865 16.4429 16.7049 12.59 21.4248 12.59C22.7369 12.59 23.9807 12.8882 25.0933 13.4199V28.9376C23.9807 29.4693 22.7369 29.7675 21.4248 29.7675C16.7049 29.7675 12.865 25.9146 12.865 21.1787Z" fill="white"/>
<path d="M23.8704 42.037H18.9791C18.3038 42.037 17.7563 41.4876 17.7563 40.81V39.2129C15.4617 38.7439 13.2658 37.8311 11.3099 36.5333L10.1841 37.6629C9.7065 38.142 8.93229 38.142 8.45473 37.6629L4.99609 34.1925C4.51854 33.7135 4.51854 32.9365 4.99609 32.4574L6.12183 31.3278C4.8284 29.3652 3.9187 27.1619 3.45126 24.8596H1.85954C1.18422 24.8596 0.636719 24.3102 0.636719 23.6326V18.7248C0.636719 18.0471 1.18422 17.4978 1.85954 17.4978H3.45126C3.9187 15.1954 4.8284 12.9922 6.12183 11.0295L4.99601 9.89989C4.76669 9.66979 4.63789 9.35773 4.63789 9.03234C4.63789 8.70695 4.76669 8.39498 4.99601 8.16488L8.45473 4.69447C8.93229 4.2153 9.7065 4.2153 10.1841 4.69447L11.3099 5.82401C13.2658 4.52621 15.4617 3.61352 17.7563 3.14441V1.54732C17.7563 0.869707 18.3038 0.320356 18.9791 0.320356H23.8704C24.5457 0.320356 25.0932 0.869707 25.0932 1.54732V10.7677C23.9453 10.3592 22.7106 10.136 21.4248 10.136C15.3564 10.136 10.4193 15.0898 10.4193 21.1787C10.4193 27.2676 15.3564 32.2213 21.4248 32.2213C22.7106 32.2213 23.9453 31.9982 25.0932 31.5897V40.81C25.0932 41.4876 24.5457 42.037 23.8704 42.037V42.037Z" fill="white"/>
</svg>
