<svg width="47" height="46" viewBox="0 0 47 46" fill="none" xmlns="http://www.w3.org/2000/svg">
<path d="M23.4935 7.68665C15.0914 7.68665 8.25537 14.5457 8.25537 22.9763C8.25537 31.4068 15.0914 38.2659 23.4935 38.2659C31.8956 38.2659 38.7316 31.4068 38.7316 22.9763C38.7316 14.5457 31.8956 7.68665 23.4935 7.68665ZM31.2893 13.3979C31.4605 13.2066 31.7022 13.0936 31.9589 13.0834C32.1803 13.0582 32.4649 13.1664 32.6509 13.3437C34.6263 15.2204 35.9694 17.6095 36.5311 20.2523C36.6204 20.6741 36.4176 21.1034 36.0363 21.3012C35.1043 21.7846 33.9976 22.0188 32.9373 22.0188C31.5553 22.0188 30.2457 21.6212 29.4868 20.8597C27.8722 19.2407 28.5455 16.4514 31.2893 13.3979ZM15.6978 32.704C15.5266 32.8952 15.2848 33.0091 15.0281 33.0194C15.017 33.0203 15.0039 33.0203 14.9909 33.0203C14.7472 33.0203 14.5129 32.9269 14.3362 32.759C12.3607 30.8823 11.0177 28.4933 10.456 25.8495C10.3667 25.4278 10.5695 24.9985 10.9508 24.8006C13.0974 23.6892 16.1591 23.8963 17.5003 25.242C19.113 26.8612 18.4396 29.6506 15.6978 32.704ZM17.5002 20.8598C16.7413 21.6213 15.4317 22.0189 14.0497 22.0189C12.9894 22.0189 11.8845 21.7846 10.9507 21.3013C10.5694 21.1035 10.3666 20.6742 10.4559 20.2524C11.0177 17.6095 12.3606 15.2205 14.3361 13.3438C14.5221 13.1665 14.7955 13.0564 15.028 13.0835C15.2847 13.0938 15.5265 13.2067 15.6977 13.3979C18.4414 16.4514 19.1147 19.2407 17.5002 20.8598ZM27.5522 35.7192C26.2334 36.141 24.868 36.3548 23.4935 36.3548C22.1189 36.3548 20.7535 36.1411 19.4347 35.7192C19.0162 35.5848 18.7428 35.1817 18.7725 34.7422C19.0106 31.3033 21.04 28.7099 23.4935 28.7099C25.947 28.7099 27.9764 31.3033 28.2145 34.7421C28.2442 35.1817 27.9708 35.5848 27.5522 35.7192ZM19.6839 22.9763C19.6839 20.8682 21.3934 19.1539 23.4935 19.1539C25.5936 19.1539 27.303 20.8681 27.303 22.9763C27.303 25.0845 25.5936 26.7987 23.4935 26.7987C21.3934 26.7987 19.6839 25.0844 19.6839 22.9763ZM28.2145 11.286C27.9764 14.7239 25.947 17.3173 23.4935 17.3173C21.04 17.3173 19.0106 14.7239 18.7725 11.286C18.7428 10.8465 19.0143 10.4433 19.4329 10.3099C22.0705 9.46433 24.9165 9.46433 27.5541 10.3099C27.9727 10.4433 28.2442 10.8465 28.2145 11.286ZM36.5311 25.6975C35.9693 28.3412 34.6263 30.7303 32.6509 32.6069C32.4742 32.7749 32.2398 32.8683 31.9962 32.8683C31.9831 32.8683 31.9701 32.8683 31.9589 32.8674C31.7022 32.8571 31.4605 32.7442 31.2893 32.5529C28.5456 29.4995 27.8722 26.7092 29.4868 25.0901C30.828 23.7435 33.8879 23.5391 36.0363 24.6487C36.4176 24.8464 36.6204 25.2757 36.5311 25.6975Z" fill="white"/>
<path d="M23.4939 0.041748C10.8897 0.041748 0.636719 10.3303 0.636719 22.9762C0.636719 35.622 10.8897 45.9106 23.4939 45.9106C36.0981 45.9106 46.351 35.622 46.351 22.9762C46.351 10.3303 36.0981 0.041748 23.4939 0.041748ZM23.4939 40.177C14.0407 40.177 6.351 32.4603 6.351 22.9762C6.351 13.492 14.0407 5.77535 23.4939 5.77535C32.947 5.77535 40.6367 13.492 40.6367 22.9762C40.6367 32.4603 32.947 40.177 23.4939 40.177Z" fill="white"/>
</svg>
