<svg width="33" height="46" viewBox="0 0 33 46" fill="none" xmlns="http://www.w3.org/2000/svg">
<path d="M32.5528 18.189C32.5528 17.8466 32.4226 17.5172 32.1888 17.2679L21.4745 5.84549C21.2213 5.57575 20.8685 5.42273 20.4992 5.42273H7.10634C6.72384 5.42273 6.35956 5.58685 6.10536 5.87371L0.748216 11.9209C0.530359 12.1669 0.409912 12.4846 0.409912 12.8137V36.5096C0.409912 37.5411 0.798037 38.4835 1.43545 39.1972C0.798037 39.911 0.409912 40.8533 0.409912 41.8849C0.409912 44.1078 2.21232 45.9163 4.42777 45.9163H28.5349C30.7504 45.9163 32.5528 44.1078 32.5528 41.8849C32.5528 40.8533 32.1646 39.911 31.5272 39.1972C32.1647 38.4835 32.5528 37.5411 32.5528 36.5096V18.189ZM16.4813 37.8531C14.2659 37.8531 12.4635 36.0446 12.4635 33.8216C12.4635 33.2682 12.6211 32.2598 13.9836 29.9031C14.6718 28.7126 15.3508 27.7241 15.3794 27.6826C15.6295 27.3194 16.0413 27.1026 16.4813 27.1026C16.9213 27.1026 17.3332 27.3194 17.5833 27.6826C17.6119 27.7241 18.2909 28.7126 18.9791 29.9031C20.3416 32.2598 20.4992 33.2682 20.4992 33.8216C20.4992 36.0446 18.6968 37.8531 16.4813 37.8531ZM26.3543 21.999C25.8363 22.4885 25.1771 22.73 24.518 22.73C23.8053 22.73 23.095 22.4465 22.5679 21.8848L16.4169 15.3272C15.402 14.2458 15.4543 12.545 16.5306 11.528C17.6096 10.5109 19.306 10.5622 20.317 11.6422L26.468 18.1998C27.483 19.2812 27.4306 20.9819 26.3543 21.999Z" fill="#1E1B1B"/>
<path d="M15.1418 33.8233C15.1418 34.5627 15.7426 35.1656 16.4811 35.1656C17.2193 35.1656 17.8198 34.5633 17.8204 33.8228C17.809 33.4106 17.2523 32.24 16.4814 30.9371C15.7099 32.2413 15.1527 33.4124 15.1418 33.8233Z" fill="#1E1B1B"/>
<path d="M15.1421 0.0474854H7.10638C6.36673 0.0474854 5.76709 0.649155 5.76709 1.3913V2.73511H16.4814V1.3913C16.4814 0.649155 15.8817 0.0474854 15.1421 0.0474854Z" fill="#1E1B1B"/>
</svg>
