<svg width="55" height="39" viewBox="0 0 55 39" fill="none" xmlns="http://www.w3.org/2000/svg">
<path d="M54.1867 12.1724C53.9235 11.8503 53.5308 11.6623 53.1189 11.6623H47.882C46.5897 8.24215 44.906 4.89116 42.9923 3.62625C36.3722 -0.743581 18.8126 -0.743581 12.1925 3.62625C10.2774 4.89255 8.60063 8.24768 7.3014 11.6623H2.06452C1.64844 11.6623 1.25715 11.8503 0.996757 12.1724C0.734982 12.4931 0.630272 12.9175 0.715693 13.3253L1.49137 17.0966C1.62364 17.7394 2.18852 18.1983 2.8402 18.1983H4.39156C2.89394 19.9319 2.16785 22.1147 2.15821 24.299C2.14857 26.9974 3.16949 29.436 5.03636 31.1613C5.05702 31.1793 5.07769 31.1917 5.09698 31.2097V36.4864C5.09698 37.6296 6.02283 38.56 7.16362 38.56H11.9941C13.1348 38.56 14.0607 37.6296 14.0607 36.4864V34.3657H41.1213V36.4864C41.1213 37.6296 42.0472 38.56 43.188 38.56H48.0184C49.1564 38.56 50.0851 37.6296 50.0851 36.4864V31.3134C52.0663 29.4927 53.0128 26.9878 53.0252 24.487C53.0335 22.2281 52.2743 19.9651 50.6885 18.1956H52.3432C52.9977 18.1956 53.5625 17.7366 53.692 17.0924L54.4691 13.3225C54.549 12.9175 54.4484 12.4959 54.1867 12.1724ZM14.4616 7.08921C19.7385 3.60413 35.4436 3.60413 40.7177 7.08921C41.7427 7.76383 43.0612 10.4913 44.2695 13.8313H10.9125C12.1181 10.4927 13.4366 7.7666 14.4616 7.08921ZM8.28099 24.8187C8.28099 22.5654 10.1024 20.7406 12.3468 20.7406C14.5939 20.7406 16.4125 22.5654 16.4125 24.8187C16.4125 27.0721 14.5939 28.8983 12.3468 28.8983C10.1024 28.8983 8.28099 27.0721 8.28099 24.8187ZM42.889 28.8983C40.6446 28.8983 38.8232 27.0721 38.8232 24.8187C38.8232 22.5654 40.6446 20.7406 42.889 20.7406C45.1361 20.7406 46.9548 22.5654 46.9548 24.8187C46.9548 27.0721 45.1334 28.8983 42.889 28.8983Z" fill="#1E1B1B"/>
</svg>
