<svg width="45" height="39" viewBox="0 0 45 39" fill="none" xmlns="http://www.w3.org/2000/svg">
<path d="M38.8911 1.92748C38.8911 0.917917 38.0755 0.0994873 37.0693 0.0994873H29.7813C28.7751 0.0994873 27.9595 0.917917 27.9595 1.92748V5.5838H38.8911V1.92748Z" fill="white"/>
<path d="M17.0279 1.92748C17.0279 0.917917 16.2122 0.0994873 15.206 0.0994873H7.91803C6.91186 0.0994873 6.09619 0.917917 6.09619 1.92748V5.5838H17.0279V1.92748Z" fill="white"/>
<path d="M0.630371 7.41187V34.8334C0.630371 35.843 1.44604 36.6618 2.45221 36.6618H6.09621V38.4898H9.74021V36.6618H35.2472V38.4898H38.8912V36.6618H42.5352C43.5414 36.6618 44.3571 35.843 44.3571 34.8334V7.41187H0.630371ZM15.2061 33.0055L18.8497 22.0368H13.3839L26.1377 11.0682L22.4937 22.0368H27.9596L15.2061 33.0055Z" fill="white"/>
</svg>
