<svg width="37" height="47" viewBox="0 0 37 47" fill="none" xmlns="http://www.w3.org/2000/svg">
<path d="M21.6214 8.4203H15.3661C13.4188 10.6474 10.9741 12.363 8.2259 13.4354V21.6569C8.2259 28.6097 12.2375 34.845 18.4938 37.6993C24.75 34.845 28.7616 28.6097 28.7616 21.6569V13.4363C26.0125 12.3639 23.5688 10.6483 21.6214 8.4203ZM25.6911 19.9798L17.3571 28.3411C17.0955 28.6036 16.7527 28.7352 16.4107 28.7352C16.0679 28.7352 15.725 28.6035 15.4634 28.3411L11.2964 24.1609C10.7741 23.6359 10.7741 22.7849 11.2964 22.2599C11.8196 21.7358 12.6679 21.7358 13.1911 22.2599L16.4107 25.4904L23.7973 18.0797C24.3196 17.5547 25.1679 17.5547 25.6911 18.0797C26.2134 18.6046 26.2134 19.4548 25.6911 19.9798ZM35.45 6.62855C31.5893 6.62855 28.0732 4.49995 26.2714 1.07412C26.0401 0.633351 25.5839 0.357422 25.0874 0.357422H11.8999C11.4035 0.357422 10.9472 0.633351 10.7151 1.07412C8.91429 4.49995 5.39822 6.62855 1.52947 6.62855C0.790186 6.62855 0.190186 7.23058 0.190186 7.97236V21.6569C0.190186 27.1584 1.90358 32.4118 5.14465 36.8491C8.38572 41.2864 12.8616 44.507 18.0902 46.1635C18.2214 46.2056 18.358 46.2262 18.4938 46.2262C18.6295 46.2262 18.7661 46.2056 18.8973 46.1635C24.126 44.5071 28.6018 41.2865 31.8429 36.8491C35.0839 32.4118 36.7973 27.1584 36.7973 21.6569V7.97236C36.7973 7.23058 36.1893 6.62855 35.45 6.62855ZM31.4402 21.5959C31.4402 29.8255 26.5607 37.1851 19.0089 40.3448C18.8438 40.4139 18.6688 40.4478 18.4938 40.4478C18.3188 40.4478 18.1429 40.4138 17.9786 40.3448C10.4268 37.1851 5.54733 29.8254 5.54733 21.5959V12.4293C5.54733 11.8488 5.91876 11.3337 6.46876 11.1527C9.31072 10.2147 11.8143 8.49018 13.708 6.16538C13.9625 5.85272 14.3438 5.67175 14.7455 5.67175H22.242C22.6527 5.67175 23.1366 5.99069 23.2794 6.16538C25.1731 8.49018 27.6767 10.2147 30.5187 11.1527C30.9107 11.2817 31.2106 11.5801 31.3517 11.9518C31.3536 11.9554 31.3544 11.9599 31.3562 11.9635C31.3902 12.0558 31.4142 12.1525 31.4277 12.252C31.4286 12.2618 31.4303 12.2726 31.4313 12.2824C31.4366 12.3308 31.4402 12.3792 31.4402 12.4293V21.5959Z" fill="#1E1B1B"/>
</svg>
