<svg width="47" height="47" viewBox="0 0 47 47" fill="none" xmlns="http://www.w3.org/2000/svg">
<path d="M46.1819 20.7454C46.1097 20.1007 45.3602 19.6157 44.7122 19.6157C42.6178 19.6157 40.759 18.3823 39.9795 16.4732C39.1838 14.5183 39.6972 12.2389 41.2576 10.8025C41.7491 10.3516 41.809 9.59665 41.397 9.07256C40.3247 7.70661 39.1064 6.47258 37.7759 5.40318C37.2554 4.98423 36.4905 5.04255 36.0388 5.54422C34.6764 7.05815 32.2291 7.62072 30.338 6.82904C28.3707 5.99848 27.1289 3.99756 27.2509 1.84985C27.291 1.17481 26.7992 0.58824 26.1288 0.509885C24.4213 0.311519 22.6987 0.305766 20.9863 0.496396C20.3244 0.569792 19.8329 1.14247 19.8548 1.80899C19.929 3.93567 18.6732 5.90128 16.7249 6.70209C14.8564 7.46798 12.4261 6.90958 11.0666 5.40894C10.6172 4.91461 9.86574 4.85391 9.34165 5.26393C7.972 6.34245 6.7263 7.57728 5.6441 8.93212C5.22241 9.45878 5.28469 10.2221 5.78032 10.6746C7.37159 12.1205 7.88461 14.4195 7.05843 16.3972C6.26962 18.2827 4.31854 19.4973 2.08514 19.4973C1.36038 19.4739 0.84459 19.9625 0.764522 20.6238C0.563661 22.3462 0.561486 24.1022 0.754835 25.8387C0.826995 26.4861 1.59861 26.967 2.25378 26.967C4.2446 26.9162 6.15476 28.152 6.95721 30.1093C7.75571 32.0642 7.2417 34.3426 5.6787 35.781C5.18979 36.2319 5.12732 36.9851 5.54011 37.5086C6.60155 38.866 7.82095 40.1008 9.15542 41.1793C9.67931 41.6026 10.4412 41.5433 10.8954 41.0411C12.263 39.5236 14.7099 38.962 16.5934 39.7553C18.5664 40.5836 19.8076 42.5844 19.6864 44.7327C19.6467 45.4077 20.1397 45.9961 20.8077 46.0726C21.6816 46.1752 22.5599 46.226 23.4411 46.226C24.2773 46.226 25.1138 46.1801 25.9502 46.0867C26.6129 46.0133 27.1036 45.44 27.0813 44.7733C27.0048 42.6476 28.2633 40.6818 30.2093 39.8826C32.0902 39.1118 34.5096 39.6759 35.8699 41.1744C36.3217 41.6677 37.0686 41.7276 37.5949 41.3192C38.9621 40.2434 40.2055 39.0092 41.2924 37.6508C41.7145 37.1251 41.6546 36.3608 41.1562 35.9075C39.5653 34.4626 39.0495 32.1626 39.8757 30.1869C40.6523 28.3268 42.5308 27.0779 44.5513 27.0779L44.834 27.0854C45.4899 27.1388 46.0927 26.6319 46.172 25.9605C46.3738 24.2365 46.376 22.4825 46.1819 20.7454ZM23.4685 36.5136C16.1907 36.5136 10.2912 30.5941 10.2912 23.2918C10.2912 15.9896 16.1909 10.0701 23.4685 10.0701C30.7462 10.0701 36.6459 15.9896 36.6459 23.2918C36.6459 25.7704 35.9648 28.0887 34.782 30.0712L29.012 24.2815C29.4297 23.2932 29.6504 22.2219 29.6502 21.1162C29.6502 18.951 28.8098 16.9156 27.2837 15.3848C25.7581 13.854 23.7295 13.0109 21.572 13.0109C20.852 13.0109 20.1354 13.1069 19.442 13.2964C19.1384 13.3795 18.8901 13.6306 18.8092 13.9359C18.7266 14.2481 18.8197 14.5681 19.0628 14.8123C19.0628 14.8123 21.9115 17.6926 22.8646 18.6487C22.9644 18.7489 22.9642 18.9879 22.9502 19.074L22.9413 19.1369C22.8452 20.1882 22.66 21.4502 22.5071 21.9352C22.4866 21.9557 22.4672 21.9729 22.4463 21.9939C22.4243 22.016 22.4041 22.0372 22.383 22.059C21.8933 22.2167 20.6162 22.4048 19.5518 22.5004L19.552 22.4946L19.5041 22.5067C19.4956 22.5077 19.4798 22.5089 19.4588 22.5089C19.3438 22.5089 19.1745 22.4766 19.0207 22.3224C18.0287 21.327 15.2918 18.6005 15.2918 18.6005C15.0462 18.3549 14.7944 18.3033 14.6265 18.3033C14.2353 18.3033 13.8849 18.587 13.7746 18.9938C13.0212 21.7914 13.8199 24.8006 15.8595 26.8474C17.3856 28.3784 19.4144 29.2214 21.5722 29.2214C22.6742 29.2214 23.742 29.0002 24.7267 28.5811L30.5594 34.4335C28.5116 35.7483 26.0799 36.5136 23.4685 36.5136Z" fill="white"/>
</svg>
